HIERARCHY
ROOT mixamorig:Hips
{
	OFFSET 0.000000 104.274902 0.000000
	CHANNELS 6 Xposition Yposition Zposition Xrotation Yrotation Zrotation
	JOINT mixamorig:Spine
	{
		OFFSET 0.000000 10.181549 0.131524
		CHANNELS 6 Xposition Yposition Zposition Xrotation Yrotation Zrotation
		JOINT mixamorig:Spine1
		{
			OFFSET 0.000000 9.893990 -1.470706
			CHANNELS 3 Xrotation Yrotation Zrotation
			JOINT mixamorig:Spine2
			{
				OFFSET 0.000000 9.220787 -1.370637
				CHANNELS 3 Xrotation Yrotation Zrotation
				JOINT mixamorig:Neck
				{
					OFFSET 0.000000 16.740372 -2.049022
					CHANNELS 6 Xposition Yposition Zposition Xrotation Yrotation Zrotation
					JOINT mixamorig:Head
					{
						OFFSET 0.000000 9.617859 1.684976
						CHANNELS 6 Xposition Yposition Zposition Xrotation Yrotation Zrotation
						JOINT mixamorig:HeadTop_End
						{
							OFFSET 0.000000 22.037384 7.501072
							CHANNELS 6 Xposition Yposition Zposition Xrotation Yrotation Zrotation
							End Site
							{
								OFFSET 0.000000 23.106567 -2.828246
							}
						}
					}
				}
				JOINT mixamorig:RightShoulder
				{
					OFFSET -4.570000 11.014877 -2.160840
					CHANNELS 6 Xposition Yposition Zposition Xrotation Yrotation Zrotation
					JOINT mixamorig:RightArm
					{
						OFFSET -10.592867 -0.524796 -2.232105
						CHANNELS 3 Xrotation Yrotation Zrotation
						JOINT mixamorig:RightForeArm
						{
							OFFSET -27.841497 0.000000 -0.000002
							CHANNELS 3 Xrotation Yrotation Zrotation
							JOINT mixamorig:RightHand
							{
								OFFSET -28.328812 0.000000 -0.000001
								CHANNELS 3 Xrotation Yrotation Zrotation
								JOINT mixamorig:RightHandThumb1
								{
									OFFSET -2.464798 -1.573990 2.681911
									CHANNELS 6 Xposition Yposition Zposition Xrotation Yrotation Zrotation
									JOINT mixamorig:RightHandThumb2
									{
										OFFSET -3.244781 -1.873383 1.873376
										CHANNELS 3 Xrotation Yrotation Zrotation
										JOINT mixamorig:RightHandThumb3
										{
											OFFSET -2.646263 -1.527817 1.527818
											CHANNELS 6 Xposition Yposition Zposition Xrotation Yrotation Zrotation
											JOINT mixamorig:RightHandThumb4
											{
												OFFSET -1.994591 -1.151581 1.151575
												CHANNELS 6 Xposition Yposition Zposition Xrotation Yrotation Zrotation
												End Site
												{
													OFFSET -1.860176 -1.142715 1.365483
												}
											}
										}
									}
								}
								JOINT mixamorig:RightHandIndex1
								{
									OFFSET -9.108299 -0.517883 2.259803
									CHANNELS 6 Xposition Yposition Zposition Xrotation Yrotation Zrotation
									JOINT mixamorig:RightHandIndex2
									{
										OFFSET -3.699997 0.000000 0.000000
										CHANNELS 3 Xrotation Yrotation Zrotation
										JOINT mixamorig:RightHandIndex3
										{
											OFFSET -2.850006 0.000000 0.000000
											CHANNELS 3 Xrotation Yrotation Zrotation
											JOINT mixamorig:RightHandIndex4
											{
												OFFSET -2.772194 0.000000 0.000000
												CHANNELS 3 Xrotation Yrotation Zrotation
												End Site
												{
													OFFSET -2.772202 0.000000 -0.000484
												}
											}
										}
									}
								}
								JOINT mixamorig:RightHandMiddle1
								{
									OFFSET -9.532501 0.000000 -0.000000
									CHANNELS 6 Xposition Yposition Zposition Xrotation Yrotation Zrotation
									JOINT mixamorig:RightHandMiddle2
									{
										OFFSET -3.699997 0.000000 0.000000
										CHANNELS 3 Xrotation Yrotation Zrotation
										JOINT mixamorig:RightHandMiddle3
										{
											OFFSET -2.949997 0.000000 0.000000
											CHANNELS 3 Xrotation Yrotation Zrotation
											JOINT mixamorig:RightHandMiddle4
											{
												OFFSET -2.946594 0.000000 0.000000
												CHANNELS 3 Xrotation Yrotation Zrotation
												End Site
												{
													OFFSET -2.946602 0.000000 -0.000982
												}
											}
										}
									}
								}
								JOINT mixamorig:RightHandRing1
								{
									OFFSET -9.103600 -0.043106 -1.865100
									CHANNELS 6 Xposition Yposition Zposition Xrotation Yrotation Zrotation
									JOINT mixamorig:RightHandRing2
									{
										OFFSET -3.379303 0.000000 0.000000
										CHANNELS 3 Xrotation Yrotation Zrotation
										JOINT mixamorig:RightHandRing3
										{
											OFFSET -2.889694 0.000000 0.000000
											CHANNELS 3 Xrotation Yrotation Zrotation
											JOINT mixamorig:RightHandRing4
											{
												OFFSET -2.638802 0.000000 0.000000
												CHANNELS 3 Xrotation Yrotation Zrotation
												End Site
												{
													OFFSET -2.638802 0.000000 0.004218
												}
											}
										}
									}
								}
								JOINT mixamorig:RightHandPinky1
								{
									OFFSET -8.076698 -0.486725 -3.806299
									CHANNELS 6 Xposition Yposition Zposition Xrotation Yrotation Zrotation
									JOINT mixamorig:RightHandPinky2
									{
										OFFSET -3.600006 0.000000 0.000000
										CHANNELS 3 Xrotation Yrotation Zrotation
										JOINT mixamorig:RightHandPinky3
										{
											OFFSET -2.099998 0.000000 0.000000
											CHANNELS 3 Xrotation Yrotation Zrotation
											JOINT mixamorig:RightHandPinky4
											{
												OFFSET -2.115791 0.000000 0.000000
												CHANNELS 3 Xrotation Yrotation Zrotation
												End Site
												{
													OFFSET -2.115799 0.000000 0.000174
												}
											}
										}
									}
								}
							}
						}
					}
				}
				JOINT mixamorig:LeftShoulder
				{
					OFFSET 4.570400 11.014679 -2.160816
					CHANNELS 6 Xposition Yposition Zposition Xrotation Yrotation Zrotation
					JOINT mixamorig:LeftArm
					{
						OFFSET 10.592373 -0.524597 -2.232116
						CHANNELS 3 Xrotation Yrotation Zrotation
						JOINT mixamorig:LeftForeArm
						{
							OFFSET 27.841488 0.000000 0.000001
							CHANNELS 3 Xrotation Yrotation Zrotation
							JOINT mixamorig:LeftHand
							{
								OFFSET 28.328808 0.000000 -0.000000
								CHANNELS 3 Xrotation Yrotation Zrotation
								JOINT mixamorig:LeftHandThumb1
								{
									OFFSET 2.466103 -1.576202 2.681698
									CHANNELS 6 Xposition Yposition Zposition Xrotation Yrotation Zrotation
									JOINT mixamorig:LeftHandThumb2
									{
										OFFSET 3.243317 -1.872528 1.872530
										CHANNELS 3 Xrotation Yrotation Zrotation
										JOINT mixamorig:LeftHandThumb3
										{
											OFFSET 2.647881 -1.528763 1.528754
											CHANNELS 6 Xposition Yposition Zposition Xrotation Yrotation Zrotation
											JOINT mixamorig:LeftHandThumb4
											{
												OFFSET 1.998924 -1.154083 1.154080
												CHANNELS 6 Xposition Yposition Zposition Xrotation Yrotation Zrotation
												End Site
												{
													OFFSET 1.884041 -1.149155 1.337651
												}
											}
										}
									}
								}
								JOINT mixamorig:LeftHandIndex1
								{
									OFFSET 9.109299 -0.518005 2.259900
									CHANNELS 6 Xposition Yposition Zposition Xrotation Yrotation Zrotation
									JOINT mixamorig:LeftHandIndex2
									{
										OFFSET 3.699997 0.000000 0.000000
										CHANNELS 3 Xrotation Yrotation Zrotation
										JOINT mixamorig:LeftHandIndex3
										{
											OFFSET 2.850006 0.000000 0.000000
											CHANNELS 3 Xrotation Yrotation Zrotation
											JOINT mixamorig:LeftHandIndex4
											{
												OFFSET 2.774895 0.000000 0.000000
												CHANNELS 3 Xrotation Yrotation Zrotation
												End Site
												{
													OFFSET 2.774902 0.000000 -0.000072
												}
											}
										}
									}
								}
								JOINT mixamorig:LeftHandMiddle1
								{
									OFFSET 9.533401 0.000000 0.000000
									CHANNELS 6 Xposition Yposition Zposition Xrotation Yrotation Zrotation
									JOINT mixamorig:LeftHandMiddle2
									{
										OFFSET 3.699997 0.000000 0.000000
										CHANNELS 3 Xrotation Yrotation Zrotation
										JOINT mixamorig:LeftHandMiddle3
										{
											OFFSET 2.949997 0.000000 0.000000
											CHANNELS 3 Xrotation Yrotation Zrotation
											JOINT mixamorig:LeftHandMiddle4
											{
												OFFSET 2.952896 0.000000 0.000000
												CHANNELS 3 Xrotation Yrotation Zrotation
												End Site
												{
													OFFSET 2.952904 0.000000 0.000165
												}
											}
										}
									}
								}
								JOINT mixamorig:LeftHandRing1
								{
									OFFSET 9.104500 -0.042999 -1.865101
									CHANNELS 6 Xposition Yposition Zposition Xrotation Yrotation Zrotation
									JOINT mixamorig:LeftHandRing2
									{
										OFFSET 3.149994 0.000000 0.000000
										CHANNELS 3 Xrotation Yrotation Zrotation
										JOINT mixamorig:LeftHandRing3
										{
											OFFSET 2.950005 0.000000 0.000000
											CHANNELS 3 Xrotation Yrotation Zrotation
											JOINT mixamorig:LeftHandRing4
											{
												OFFSET 2.644302 0.000000 0.000000
												CHANNELS 3 Xrotation Yrotation Zrotation
												End Site
												{
													OFFSET 2.644302 0.000000 0.000083
												}
											}
										}
									}
								}
								JOINT mixamorig:LeftHandPinky1
								{
									OFFSET 8.077805 -0.486893 -3.806302
									CHANNELS 6 Xposition Yposition Zposition Xrotation Yrotation Zrotation
									JOINT mixamorig:LeftHandPinky2
									{
										OFFSET 3.600006 0.000000 0.000000
										CHANNELS 3 Xrotation Yrotation Zrotation
										JOINT mixamorig:LeftHandPinky3
										{
											OFFSET 2.099998 0.000000 0.000000
											CHANNELS 3 Xrotation Yrotation Zrotation
											JOINT mixamorig:LeftHandPinky4
											{
												OFFSET 2.125496 0.000000 0.000000
												CHANNELS 3 Xrotation Yrotation Zrotation
												End Site
												{
													OFFSET 2.125504 0.000000 -0.001254
												}
											}
										}
									}
								}
							}
						}
					}
				}
			}
		}
	}
	JOINT mixamorig:RightUpLeg
	{
		OFFSET -8.207800 -6.751701 -1.599544
		CHANNELS 6 Xposition Yposition Zposition Xrotation Yrotation Zrotation
		JOINT mixamorig:RightLeg
		{
			OFFSET 0.000004 -44.370152 0.345934
			CHANNELS 3 Xrotation Yrotation Zrotation
			JOINT mixamorig:RightFoot
			{
				OFFSET 0.000004 -44.423664 -3.043535
				CHANNELS 3 Xrotation Yrotation Zrotation
				JOINT mixamorig:RightToeBase
				{
					OFFSET 0.000001 -8.728691 10.710592
					CHANNELS 3 Xrotation Yrotation Zrotation
					JOINT mixamorig:RightToe_End
					{
						OFFSET 0.000000 -0.000665 9.278101
						CHANNELS 3 Xrotation Yrotation Zrotation
						End Site
						{
							OFFSET 0.000000 -0.000665 9.278103
						}
					}
				}
			}
		}
	}
	JOINT mixamorig:LeftUpLeg
	{
		OFFSET 8.207800 -6.751701 -1.599544
		CHANNELS 6 Xposition Yposition Zposition Xrotation Yrotation Zrotation
		JOINT mixamorig:LeftLeg
		{
			OFFSET 0.000004 -44.370037 0.346940
			CHANNELS 3 Xrotation Yrotation Zrotation
			JOINT mixamorig:LeftFoot
			{
				OFFSET 0.000004 -44.423611 -3.044388
				CHANNELS 3 Xrotation Yrotation Zrotation
				JOINT mixamorig:LeftToeBase
				{
					OFFSET 0.000001 -8.728690 10.710592
					CHANNELS 3 Xrotation Yrotation Zrotation
					JOINT mixamorig:LeftToe_End
					{
						OFFSET 0.000000 -0.000680 9.278101
						CHANNELS 3 Xrotation Yrotation Zrotation
						End Site
						{
							OFFSET 0.000000 -0.000680 9.278101
						}
					}
				}
			}
		}
	}
}
MOTION
Frames: 4
Frame Time: 0.033333
2.237184 132.060425 -13.444450 33.947198 -0.972922 -3.172425 0.000001 10.181529 0.131532 10.641290 1.888964 -0.325508 6.122730 0.355736 0.469017 6.121873 0.326451 0.484903 -0.000000 16.740349 -2.049022 -10.367227 -1.051783 -0.492119 0.000000 9.617821 1.684967 -16.380926 -7.565115 -0.642930 0.000003 22.037369 7.501081 0.000001 -0.000000 -0.000000 -4.570001 11.014881 -2.160849 0.932110 8.350969 1.688753 25.520507 2.296033 10.024360 -0.000085 69.526517 0.000140 2.701969 31.871039 -45.895063 -2.464801 -1.574011 2.681909 15.143078 0.480064 -4.481309 8.674408 -11.609424 1.140386 -2.646257 -1.527801 1.527818 8.131153 -10.817344 9.127266 -1.994586 -1.151587 1.151579 -0.000001 -0.000001 -0.000002 -9.108299 -0.517882 2.259808 1.002847 7.410291 42.680257 2.310023 -5.395099 52.880622 -0.195277 -0.144739 13.158601 -0.000000 0.000001 -0.000000 -9.532499 -0.000015 0.000004 0.310141 -8.223813 50.224102 2.769706 -5.807782 59.666504 0.374173 -2.160732 20.875544 -0.000000 0.000000 -0.000000 -9.103594 -0.043110 -1.865095 6.465651 -12.858921 56.298306 3.365913 -5.003950 60.365055 -0.157256 0.027518 17.891134 0.000000 -0.000000 -0.000000 -8.076683 -0.486729 -3.806287 8.089937 -24.040717 61.979042 2.400735 -5.005818 59.434694 -0.729500 -0.682600 25.961621 -0.000001 -0.000001 0.000001 4.570400 11.014691 -2.160830 0.569373 -3.150791 -2.461217 13.289605 -9.747174 -33.453543 0.000004 -51.426093 -0.000003 -20.940684 -45.236800 49.212387 2.466103 -1.576209 2.681695 13.926986 -1.365846 8.867346 9.589568 8.941728 -5.052066 2.647880 -1.528724 1.528755 12.482578 13.277711 3.682249 1.998925 -1.154091 1.154084 -0.000001 0.000007 -0.000000 9.109296 -0.518011 2.259897 -0.458432 -8.365799 -40.911563 3.693705 6.165299 -68.679902 0.152881 1.419207 -16.225394 0.000002 0.000007 0.000000 9.533390 0.000018 0.000000 3.132215 10.728325 -46.204437 3.680208 6.256063 -69.876305 0.310174 1.962973 -17.213590 -0.000002 -0.000001 0.000000 9.104502 -0.042994 -1.865107 8.494839 14.931485 -52.887473 3.957454 5.228389 -66.722199 0.672448 2.092426 -22.240935 0.000002 -0.000001 -0.000001 8.077807 -0.486887 -3.806302 7.091827 29.407082 -52.412929 2.956143 5.353909 -65.972688 0.433126 2.730746 -19.194348 -0.000001 0.000002 0.000002 -8.207798 -6.751708 -1.599529 -120.212654 -2.908312 0.048350 103.623368 -8.692100 -0.456933 -13.476752 -6.469367 -14.569760 -0.540295 -0.000001 0.000008 0.000000 0.000000 0.000001 8.207798 -6.751709 -1.599541 -101.672284 -10.926155 3.245690 81.538716 10.337278 0.032025 -3.881207 8.091570 -18.503336 1.869281 -0.000003 0.000001 -0.000000 0.000002 -0.000000 
2.390530 125.379425 -11.707413 34.670918 -0.453333 -3.738576 -0.000000 10.181550 0.131533 7.555392 2.265231 -0.654679 4.231912 0.183827 0.159209 4.230391 0.210051 0.159080 -0.000000 16.740360 -2.049021 -9.641895 -1.238586 -0.577222 0.000000 9.617845 1.684983 -11.365347 -9.350484 0.694281 0.000000 22.037354 7.501077 -0.000000 0.000000 -0.000000 -4.570000 11.014863 -2.160831 0.714274 5.326596 2.013792 29.053145 -1.931578 15.799124 -0.000164 77.741541 0.000211 4.914323 30.777710 -43.667107 -2.464795 -1.573991 2.681912 15.143079 0.480073 -4.481285 8.674407 -11.609423 1.140386 -2.646259 -1.527801 1.527814 8.131174 -10.817335 9.127274 -1.994594 -1.151586 1.151572 0.000001 -0.000002 -0.000002 -9.108294 -0.517898 2.259810 1.002843 7.410310 42.680268 2.310028 -5.395101 52.880622 -0.195277 -0.144730 13.158601 0.000003 -0.000000 -0.000001 -9.532489 -0.000015 0.000003 0.310143 -8.223800 50.224116 2.769721 -5.807780 59.666477 0.374175 -2.160733 20.875543 -0.000000 -0.000000 -0.000000 -9.103593 -0.043122 -1.865094 6.465670 -12.858926 56.298326 3.365907 -5.003946 60.365055 -0.157249 0.027526 17.891148 0.000001 0.000000 -0.000001 -8.076711 -0.486739 -3.806297 8.089965 -24.040712 61.979049 2.400737 -5.005814 59.434708 -0.729501 -0.682586 25.961636 0.000000 -0.000001 -0.000001 4.570402 11.014676 -2.160813 0.504566 -2.137273 -2.389001 16.732519 -1.155406 -34.748000 -0.000029 -69.529243 -0.000020 -9.945998 -39.988090 52.487965 2.466113 -1.576184 2.681696 13.926992 -1.365851 8.867349 9.589573 8.941733 -5.052055 2.647879 -1.528747 1.528761 12.482586 13.277687 3.682247 1.998906 -1.154097 1.154082 0.000003 0.000002 -0.000002 9.109284 -0.518012 2.259892 -0.458402 -8.365803 -40.911532 3.693698 6.165292 -68.679936 0.152875 1.419190 -16.225384 -0.000000 0.000000 0.000000 9.533410 0.000007 -0.000001 3.132213 10.728311 -46.204440 3.680204 6.256075 -69.876284 0.310180 1.962967 -17.213579 0.000000 -0.000001 -0.000002 9.104508 -0.043003 -1.865106 8.494857 14.931485 -52.887466 3.957458 5.228392 -66.722199 0.672434 2.092418 -22.240942 0.000001 0.000003 -0.000001 8.077812 -0.486888 -3.806314 7.091823 29.407079 -52.412891 2.956162 5.353899 -65.972695 0.433130 2.730744 -19.194358 -0.000002 0.000002 -0.000001 -8.207799 -6.751707 -1.599530 -111.554741 -4.213561 0.892021 100.339031 -8.855887 -0.858919 -13.372803 -7.685629 -13.361441 -0.364929 -0.000000 0.000015 0.000001 0.000001 0.000003 8.207799 -6.751697 -1.599548 -91.541487 -12.265090 3.812221 70.551578 10.259448 0.080156 0.871393 7.261178 -17.469747 1.436513 -0.000001 -0.000006 0.000000 0.000001 0.000001 
2.723508 117.464539 -9.163544 32.936234 -0.188526 -4.003404 0.000000 10.181552 0.131521 5.778539 2.784643 -1.097747 2.887574 0.232462 -0.295138 2.884832 0.300615 -0.299875 0.000001 16.740372 -2.049012 -8.583449 -1.368925 -0.765452 -0.000000 9.617828 1.684987 -6.268938 -10.822925 2.063309 0.000001 22.037369 7.501075 0.000002 -0.000000 -0.000001 -4.569999 11.014876 -2.160835 0.490113 1.924461 2.304780 35.783221 -6.103045 23.362674 -0.000739 85.840957 0.000774 7.607179 29.967137 -41.499615 -2.464810 -1.574004 2.681908 15.143081 0.480080 -4.481292 8.674398 -11.609416 1.140380 -2.646280 -1.527817 1.527815 8.131177 -10.817327 9.127283 -1.994586 -1.151585 1.151575 0.000002 -0.000001 -0.000002 -9.108308 -0.517893 2.259798 1.002851 7.410300 42.680257 2.310012 -5.395094 52.880598 -0.195294 -0.144762 13.158636 0.000002 0.000002 0.000000 -9.532515 -0.000011 0.000001 0.310145 -8.223807 50.224089 2.769713 -5.807779 59.666504 0.374161 -2.160716 20.875558 0.000000 0.000002 0.000000 -9.103619 -0.043125 -1.865099 6.465650 -12.858906 56.298306 3.365903 -5.003962 60.365075 -0.157251 0.027510 17.891143 0.000001 -0.000001 -0.000000 -8.076689 -0.486734 -3.806293 8.089951 -24.040705 61.979042 2.400723 -5.005819 59.434694 -0.729508 -0.682581 25.961626 -0.000000 0.000001 -0.000001 4.570401 11.014647 -2.160809 0.454958 -1.190244 -2.915597 21.919863 7.742012 -37.626976 0.000053 -82.912404 0.000017 -3.947521 -36.434186 50.578866 2.466100 -1.576198 2.681695 13.926979 -1.365830 8.867338 9.589573 8.941736 -5.052038 2.647883 -1.528750 1.528750 12.482587 13.277691 3.682245 1.998913 -1.154088 1.154076 0.000000 0.000001 0.000001 9.109293 -0.517995 2.259891 -0.458420 -8.365814 -40.911549 3.693686 6.165295 -68.679936 0.152870 1.419204 -16.225381 -0.000002 0.000002 0.000001 9.533394 0.000022 -0.000009 3.132212 10.728293 -46.204430 3.680204 6.256095 -69.876271 0.310175 1.962958 -17.213588 -0.000004 -0.000000 0.000001 9.104491 -0.042997 -1.865108 8.494846 14.931477 -52.887480 3.957459 5.228390 -66.722178 0.672435 2.092420 -22.240937 -0.000001 0.000001 -0.000002 8.077812 -0.486891 -3.806308 7.091823 29.407072 -52.412884 2.956163 5.353913 -65.972702 0.433122 2.730748 -19.194365 0.000000 0.000002 0.000000 -8.207797 -6.751700 -1.599548 -98.245892 -4.885187 1.465275 92.117177 -9.288499 -0.626430 -9.410664 -4.722366 -8.838074 -0.773705 0.000003 -0.000001 -0.000001 0.000000 -0.000000 8.207800 -6.751706 -1.599543 -76.508726 -10.962717 5.741757 55.139246 10.141881 -0.002669 9.654719 3.013600 -15.997246 0.473449 0.000013 -0.000004 -0.000001 0.000002 -0.000001 
2.985079 107.824974 -6.308811 28.594606 0.727963 -3.446519 0.000000 10.181542 0.131526 5.405825 2.176082 -2.251578 2.288723 0.368411 -0.795242 2.284587 0.444700 -0.800452 -0.000001 16.740360 -2.049036 -6.797201 -1.361688 -0.857494 0.000003 9.617832 1.684983 -1.326933 -11.288477 3.358250 -0.000004 22.037369 7.501070 -0.000001 -0.000001 -0.000000 -4.570001 11.014877 -2.160853 0.343106 -0.418942 2.335865 43.356272 -9.098870 33.231135 0.002564 91.023131 -0.002570 8.557508 30.363114 -39.107197 -2.464784 -1.574016 2.681903 15.143078 0.480076 -4.481293 8.674410 -11.609426 1.140370 -2.646272 -1.527807 1.527824 8.131169 -10.817343 9.127290 -1.994601 -1.151573 1.151579 0.000002 -0.000003 0.000001 -9.108288 -0.517876 2.259800 1.002835 7.410285 42.680264 2.310015 -5.395098 52.880605 -0.195276 -0.144749 13.158618 0.000001 0.000002 0.000002 -9.532503 0.000000 -0.000003 0.310143 -8.223813 50.224095 2.769708 -5.807791 59.666504 0.374174 -2.160729 20.875529 -0.000002 0.000002 0.000001 -9.103592 -0.043109 -1.865104 6.465661 -12.858934 56.298326 3.365920 -5.003949 60.365082 -0.157255 0.027517 17.891134 -0.000000 0.000001 0.000001 -8.076683 -0.486720 -3.806294 8.089942 -24.040717 61.979056 2.400723 -5.005811 59.434660 -0.729506 -0.682582 25.961653 -0.000000 0.000002 0.000000 4.570400 11.014679 -2.160832 0.441263 -0.655435 -3.517773 28.959271 15.402104 -42.458454 -0.000360 -87.440526 -0.000325 -1.721809 -35.434803 48.391638 2.466098 -1.576219 2.681698 13.926980 -1.365837 8.867350 9.589574 8.941729 -5.052060 2.647892 -1.528762 1.528746 12.482575 13.277706 3.682255 1.998925 -1.154091 1.154085 0.000000 0.000005 -0.000000 9.109285 -0.518025 2.259902 -0.458417 -8.365813 -40.911563 3.693709 6.165296 -68.679909 0.152860 1.419194 -16.225389 0.000002 -0.000006 0.000001 9.533406 0.000011 -0.000003 3.132218 10.728313 -46.204430 3.680207 6.256081 -69.876284 0.310186 1.962978 -17.213602 0.000002 0.000002 -0.000002 9.104496 -0.043008 -1.865099 8.494851 14.931466 -52.887470 3.957436 5.228401 -66.722185 0.672433 2.092425 -22.240957 0.000002 -0.000003 0.000001 8.077799 -0.486907 -3.806302 7.091821 29.407089 -52.412881 2.956184 5.353905 -65.972722 0.433126 2.730726 -19.194353 0.000001 -0.000000 0.000000 -8.207800 -6.751708 -1.599546 -81.814417 -4.745303 0.608127 79.568753 -6.041338 0.163718 -2.780940 0.402646 -3.845466 -1.927477 0.000000 0.000001 -0.000002 0.000000 0.000000 8.207800 -6.751711 -1.599543 -60.251803 -7.836218 6.301915 41.096234 9.685607 -0.038982 13.386349 -0.699499 -12.266863 -2.958012 -0.000000 0.000004 -0.000001 0.000001 -0.000000 
